<svg width="32" height="32" viewBox="0 0 32 32" fill="none" xmlns="http://www.w3.org/2000/svg">
<circle cx="16" cy="16" r="16" fill="#E6F2E6"/>
<path d="M16.1482 2.23816C18.9268 2.23824 21.1794 4.4908 21.1794 7.26941V14.1346C23.5027 15.7092 25.0261 18.3426 25.0261 21.327C25.0261 26.1487 21.0516 30.0573 16.1482 30.0575C11.2447 30.0575 7.26929 26.1488 7.26929 21.327C7.26934 18.3422 8.79316 15.7081 11.1169 14.1337V7.26941C11.1169 4.49075 13.3695 2.23816 16.1482 2.23816ZM16.1482 4.90222C14.6772 4.90229 13.4851 6.09527 13.4851 7.56628V15.618C11.3809 16.656 9.93335 18.823 9.93335 21.328C9.9338 24.8418 12.7827 27.6903 16.2966 27.6903C19.8102 27.69 22.6585 24.8416 22.6589 21.328C22.6589 18.7076 21.0749 16.4566 18.8123 15.4813V7.56628C18.8123 6.09535 17.6191 4.90242 16.1482 4.90222ZM21.1794 21.4755C21.1794 22.1359 21.0493 22.79 20.7966 23.4003C20.5438 24.0107 20.173 24.5659 19.7058 25.0331C19.2386 25.5002 18.6834 25.8701 18.073 26.1229C17.4627 26.3757 16.8088 26.5067 16.1482 26.5067C15.4875 26.5067 14.8328 26.3758 14.2224 26.1229C13.6123 25.8701 13.0576 25.5001 12.5906 25.0331C12.1234 24.5659 11.7526 24.0107 11.4998 23.4003C11.247 22.79 11.117 22.136 11.1169 21.4755H21.1794Z" fill="#48B24E"/>
</svg>
